<!DOCTYPE svg PUBLIC "-//W3C//DTD SVG 1.0//EN" "http://www.w3.org/TR/2001/REC-SVG-20010904/DTD/svg10.dtd"><svg class="sprite" xmlns="http://www.w3.org/2000/svg" xmlns:xlink="http://www.w3.org/1999/xlink"><symbol viewBox="0 0 24 24" id="call" xmlns="http://www.w3.org/2000/svg"><path d="M9 16C2.814 9.813 3.11 5.134 5.94 3.012l.627-.467a1.483 1.483 0 0 1 2.1.353l1.579 2.272a1.5 1.5 0 0 1-.25 1.99l-1.52 1.314c-.38.329-.566.828-.395 1.301.316.88 1.083 2.433 2.897 4.246 1.814 1.814 3.366 2.581 4.246 2.898.474.17.973-.015 1.302-.396l1.314-1.518a1.5 1.5 0 0 1 1.99-.25l2.276 1.58a1.48 1.48 0 0 1 .354 2.096l-.47.633C19.869 21.892 15.188 22.187 9 16z"/></symbol><symbol viewBox="0 0 64 64" xml:space="preserve" id="location" xmlns="http://www.w3.org/2000/svg"><path d="M32 0C18.746 0 8 10.746 8 24c0 5.219 1.711 10.008 4.555 13.93.051.094.059.199.117.289l16 24a4.001 4.001 0 0 0 6.656 0l16-24c.059-.09.066-.195.117-.289C54.289 34.008 56 29.219 56 24 56 10.746 45.254 0 32 0zm0 32a8 8 0 1 1 0-16 8 8 0 0 1 0 16z"/></symbol><symbol viewBox="0 -3.5 32 32" id="mail" xmlns="http://www.w3.org/2000/svg"><path d="m16 14.916-3.316-2.749L1.115 24.01h29.476L19.235 12.147 16 14.916Zm4.89-4.026 11.002 11.439a2.53 2.53 0 0 0 .108-.695V1.862L20.89 10.89ZM0 1.816v19.818c0 .243.045.473.108.695l11.039-11.402L0 1.816ZM31 0H1l15 12.019L31 0Z" fill-rule="evenodd"/></symbol></svg>